<?xml version="1.0" standalone="no"?>
<!DOCTYPE svg PUBLIC "-//W3C//DTD SVG 20010904//EN"
 "http://www.w3.org/TR/2001/REC-SVG-20010904/DTD/svg10.dtd">
<svg version="1.0" xmlns="http://www.w3.org/2000/svg"
 width="1000.000000pt" height="1000.000000pt" viewBox="0 0 1000.000000 1000.000000"
 preserveAspectRatio="xMidYMid meet">
<metadata>
Created by potrace 1.11, written by Peter Selinger 2001-2013
</metadata>
<g transform="translate(0.000000,1000.000000) scale(0.100000,-0.100000)"
fill="#000000" stroke="none">
<path d="M910 9915 c-399 -73 -715 -374 -806 -770 -18 -77 -19 -223 -19 -4140
0 -3923 1 -4063 19 -4140 88 -380 381 -673 761 -761 77 -18 217 -19 4130 -19
3913 0 4053 1 4130 19 372 86 655 363 758 741 l22 80 3 4040 c2 3578 0 4050
-13 4128 -69 402 -351 702 -765 814 -62 17 -282 18 -4105 19 -3366 2 -4052 0
-4115 -11z m5118 -1572 c36 -92 2512 -6346 2663 -6725 18 -46 18 -47 -2 -72
l-20 -26 -969 0 -968 0 -199 498 -199 497 -1339 0 -1339 0 -199 -498 -199
-497 -968 0 -969 0 -20 26 c-20 25 -20 26 -2 72 115 287 2626 6630 2663 6725
l50 127 983 0 983 0 50 -127z"/>
<path d="M4609 4933 c-211 -537 -385 -980 -387 -984 -2 -5 346 -9 773 -9 618
0 776 3 772 13 -3 6 -177 449 -387 982 -210 534 -383 971 -384 972 -1 2 -175
-437 -387 -974z"/>
</g>
</svg>
